<svg xmlns="http://www.w3.org/2000/svg" viewBox="0 0 24 24" width="512" height="512">
  <rect width="24" height="24" rx="3.5" fill="#016893"/>
  <path fill="white" d="M15.5,12C18,12 20,14 20,16.5C20,17.38 19.75,18.21 19.31,18.9L22.39,22L21,23.39L17.88,20.32C17.19,20.75 16.37,21 15.5,21C13,21 11,19 11,16.5C11,14 13,12 15.5,12M15.5,14A2.5,2.5 0 0,0 13,16.5A2.5,2.5 0 0,0 15.5,19A2.5,2.5 0 0,0 18,16.5A2.5,2.5 0 0,0 15.5,14M5,3H19C20.11,3 21,3.89 21,5V13.03C20.5,12.23 19.81,11.54 19,11V5H5V19H9.5C9.81,19.75 10.26,20.42 10.81,21H5C3.89,21 3,20.11 3,19V5C3,3.89 3.89,3 5,3M7,7H17V9H7V7M7,11H13V13H9.91C9.18,12.38 8.38,12.08 7,11.3V11M7,15H9C9,15.56 9.08,16.08 9.23,16.58L7,17V15Z"/>
</svg>
